<?xml version="1.0" encoding="UTF-8"?>
<svg width="504px" height="504px" viewBox="0 0 504 504" version="1.1" xmlns="http://www.w3.org/2000/svg" xmlns:xlink="http://www.w3.org/1999/xlink">
    <title>instagram-new-2016-seeklogo.com</title>
    <defs>
        <filter id="filter-1">
            <feColorMatrix in="SourceGraphic" type="matrix" values="0 0 0 0 1.000000 0 0 0 0 1.000000 0 0 0 0 1.000000 0 0 0 1.000000 0"></feColorMatrix>
        </filter>
        <polygon id="path-2" points="0 0 503.841 0 503.841 503.781 0 503.781"></polygon>
    </defs>
    <g id="Other" stroke="none" stroke-width="1" fill="none" fill-rule="evenodd">
        <g id="instagram-new-2016-seeklogo.com" transform="translate(-1490.000000, -1305.000000)" filter="url(#filter-1)">
            <g transform="translate(1490.000000, 1305.000000)">
                <g id="Group-3">
                    <mask id="mask-3" fill="white">
                        <use xlink:href="#path-2"></use>
                    </mask>
                    <g id="Clip-2"></g>
                    <path d="M251.921,0 C183.503,0 174.924,0.29 148.054,1.516 C121.24,2.739 102.927,6.998 86.903,13.226 C70.337,19.663 56.288,28.277 42.282,42.282 C28.277,56.288 19.663,70.337 13.226,86.903 C6.998,102.927 2.739,121.24 1.516,148.054 C0.29,174.924 0,183.503 0,251.921 C0,320.338 0.29,328.917 1.516,355.787 C2.739,382.601 6.998,400.914 13.226,416.938 C19.663,433.504 28.277,447.553 42.282,461.559 C56.288,475.564 70.337,484.178 86.903,490.616 C102.927,496.843 121.24,501.102 148.054,502.325 C174.924,503.551 183.503,503.841 251.921,503.841 C320.338,503.841 328.917,503.551 355.787,502.325 C382.601,501.102 400.914,496.843 416.938,490.616 C433.504,484.178 447.553,475.564 461.559,461.559 C475.564,447.553 484.178,433.504 490.616,416.938 C496.843,400.914 501.102,382.601 502.325,355.787 C503.551,328.917 503.841,320.338 503.841,251.921 C503.841,183.503 503.551,174.924 502.325,148.054 C501.102,121.24 496.843,102.927 490.616,86.903 C484.178,70.337 475.564,56.288 461.559,42.282 C447.553,28.277 433.504,19.663 416.938,13.226 C400.914,6.998 382.601,2.739 355.787,1.516 C328.917,0.29 320.338,0 251.921,0 Z M251.921,45.391 C319.186,45.391 327.154,45.648 353.718,46.86 C378.28,47.98 391.619,52.084 400.496,55.534 C412.255,60.104 420.647,65.563 429.462,74.379 C438.278,83.194 443.737,91.586 448.307,103.345 C451.757,112.222 455.861,125.561 456.981,150.123 C458.193,176.687 458.45,184.655 458.45,251.921 C458.45,319.186 458.193,327.154 456.981,353.718 C455.861,378.28 451.757,391.619 448.307,400.496 C443.737,412.255 438.278,420.647 429.462,429.462 C420.647,438.278 412.255,443.737 400.496,448.307 C391.619,451.757 378.28,455.861 353.718,456.981 C327.158,458.193 319.191,458.45 251.921,458.45 C184.65,458.45 176.684,458.193 150.123,456.981 C125.561,455.861 112.222,451.757 103.345,448.307 C91.586,443.737 83.194,438.278 74.379,429.462 C65.564,420.647 60.104,412.255 55.534,400.496 C52.084,391.619 47.98,378.28 46.86,353.718 C45.648,327.154 45.391,319.186 45.391,251.921 C45.391,184.655 45.648,176.687 46.86,150.123 C47.98,125.561 52.084,112.222 55.534,103.345 C60.104,91.586 65.563,83.194 74.379,74.379 C83.194,65.563 91.586,60.104 103.345,55.534 C112.222,52.084 125.561,47.98 150.123,46.86 C176.687,45.648 184.655,45.391 251.921,45.391 L251.921,45.391 Z" id="Fill-1" fill="#0A0B09" mask="url(#mask-3)"></path>
                </g>
                <path d="M251.921,335.894 C205.543,335.894 167.947,298.298 167.947,251.921 C167.947,205.543 205.543,167.947 251.921,167.947 C298.298,167.947 335.894,205.543 335.894,251.921 C335.894,298.298 298.298,335.894 251.921,335.894 Z M251.921,122.556 C180.474,122.556 122.556,180.474 122.556,251.921 C122.556,323.367 180.474,381.285 251.921,381.285 C323.367,381.285 381.285,323.367 381.285,251.921 C381.285,180.474 323.367,122.556 251.921,122.556 L251.921,122.556 Z" id="Fill-4" fill="#0A0B09"></path>
                <path d="M416.627,117.445 C416.627,134.141 403.092,147.675 386.396,147.675 C369.701,147.675 356.166,134.141 356.166,117.445 C356.166,100.749 369.701,87.214 386.396,87.214 C403.092,87.214 416.627,100.749 416.627,117.445" id="Fill-5" fill="#0A0B09"></path>
            </g>
        </g>
    </g>
</svg>