<?xml version="1.0" encoding="UTF-8"?>
<svg width="296px" height="284px" viewBox="0 0 296 284" version="1.1" xmlns="http://www.w3.org/2000/svg" xmlns:xlink="http://www.w3.org/1999/xlink">
    <title>m</title>
    <g id="Other" stroke="none" stroke-width="1" fill="none" fill-rule="evenodd">
        <g id="Desktop-HD" transform="translate(-1594.000000, -906.000000)" fill="#FFFFFF" fill-rule="nonzero">
            <path d="M1890,1190 L1890,948.760748 C1890,915.870252 1854.55136,895.363078 1826.26267,911.77823 C1826.2315,911.793915 1826.20027,911.812218 1826.16902,911.83052 L1826.16902,911.833069 L1826.12223,911.979323 L1826,911.979323 L1826,1190 L1890,1190 Z M1774,1190 L1774,948.760748 C1774,915.870252 1738.55136,895.363078 1710.26267,911.77823 L1710.16902,911.83052 L1710.16902,911.83052 L1710.16902,911.833069 L1710.12223,911.979323 L1710,911.979323 L1710,1190 L1774,1190 Z M1658,1190 L1658,907 L1594,907 L1594,1190 L1658,1190 Z" id="m"></path>
        </g>
    </g>
</svg>